<?xml version="1.0" encoding="UTF-8" standalone="no"?>
<!-- Created with Inkscape (http://www.inkscape.org/) -->

<svg
   xmlns:dc="http://purl.org/dc/elements/1.1/"
   xmlns:cc="http://creativecommons.org/ns#"
   xmlns:rdf="http://www.w3.org/1999/02/22-rdf-syntax-ns#"
   xmlns:svg="http://www.w3.org/2000/svg"
   xmlns="http://www.w3.org/2000/svg"
   xmlns:sodipodi="http://sodipodi.sourceforge.net/DTD/sodipodi-0.dtd"
   xmlns:inkscape="http://www.inkscape.org/namespaces/inkscape"
   id="svg4165"
   version="1.1"
   inkscape:version="0.91 r13725"
   width="100.3125"
   height="181.875"
   viewBox="0 0 100.3125 181.875"
   sodipodi:docname="MilkCan.svg">
  <metadata
     id="metadata4171">
    <rdf:RDF>
      <cc:Work
         rdf:about="">
        <dc:format>image/svg+xml</dc:format>
        <dc:type
           rdf:resource="http://purl.org/dc/dcmitype/StillImage" />
        <dc:title></dc:title>
      </cc:Work>
    </rdf:RDF>
  </metadata>
  <defs
     id="defs4169" />
  <sodipodi:namedview
     pagecolor="#ffffff"
     bordercolor="#666666"
     borderopacity="1"
     objecttolerance="10"
     gridtolerance="10"
     guidetolerance="10"
     inkscape:pageopacity="0"
     inkscape:pageshadow="2"
     inkscape:window-width="1600"
     inkscape:window-height="837"
     id="namedview4167"
     showgrid="false"
     inkscape:zoom="3.6838488"
     inkscape:cx="50.15625"
     inkscape:cy="90.9375"
     inkscape:window-x="-8"
     inkscape:window-y="-8"
     inkscape:window-maximized="1"
     inkscape:current-layer="svg4165" />
  <path
     style="fill:#000000"
     d="M 35.042168,180.95669 C 11.212464,177.37058 -2.1722051,167.02988 1.2850707,154.87672 2.5968992,150.26532 2.7866528,143.21377 2.6968514,102.41274 L 2.5931057,55.276212 4.9427874,52.926531 C 8.7281903,49.141128 9.8569003,45.536216 8.0599763,42.970748 6.0977697,40.169305 6.0780815,40.253674 9.609375,36.331242 l 3.046875,-3.384357 3.75,1.446798 c 2.0625,0.795739 5.334676,1.653816 7.271501,1.906839 1.936826,0.253022 3.754692,0.837351 4.039704,1.298509 1.439659,2.329419 2.266479,0.193384 2.124944,-5.489656 l -0.157601,-6.328125 -0.595311,5.625 -0.595311,5.625 -0.418963,-5.550934 C 27.508264,23.968678 25.520482,23.413721 25.069649,30.641211 L 24.729533,36.09375 24.552266,29.873447 C 24.396161,24.395677 24.098918,23.472248 22.06223,22.137758 2.4912984,9.3143917 22.782701,-2.0871838 59.899057,0.87755116 90.782866,3.3444504 99.937078,12.598353 81.5625,22.776923 c -3.12465,1.730896 -4.29735,2.987837 -4.521825,4.84665 -0.29569,2.44853 -0.248096,2.473656 1.953382,1.031192 2.650875,-1.73692 7.2098,-0.646653 10.771568,2.57602 1.160156,1.049704 2.109375,1.550538 2.109375,1.112965 0,-0.437573 1.054687,0.195239 2.34375,1.40625 2.839275,2.667358 2.918616,4.20184 0.428456,8.286273 -2.261653,3.709641 -0.480318,9.76291 3.906891,13.276227 1.325259,1.061281 1.763673,6.416445 0.734991,8.977759 -0.77866,1.938787 -1.190279,16.962744 -1.406429,51.334241 -0.168065,26.72629 -0.550097,49.36363 -0.848943,50.30522 -0.525469,1.65561 -9.939269,9.37685 -11.446616,9.38856 -0.408843,0.003 -2.008975,0.68028 -3.55585,1.50469 -8.021443,4.27502 -32.020751,6.38629 -46.989082,4.13372 z m 35.739082,-1.87986 c 13.416101,-3.30407 25.135922,-11.08983 26.3379,-17.49691 0.855816,-4.5619 0.0037,-4.80369 -4.047499,-1.14838 -19.56256,17.65123 -68.049792,17.76208 -87.488895,0.20002 L 1.875,157.28182 l 0,2.71299 c 0,3.00831 2.4728356,7.20077 3.7732013,6.3971 0.4578255,-0.28295 0.572343,-1.23923 0.2544833,-2.12506 -0.4685675,-1.30583 -0.1503694,-1.23147 1.6815694,0.39298 1.2427228,1.10196 4.067365,2.9111 6.276983,4.02032 3.912195,1.96389 4.518687,3.75236 1.31781,3.88607 -4.794321,0.20027 13.834193,6.15344 23.258453,7.43277 7.341058,0.99653 26.806442,0.44156 32.34375,-0.92216 z M 65.625,177.07434 c 11.785505,-2.72859 12.165639,-2.84301 12.787507,-3.84922 0.335362,-0.54263 -0.155538,-0.70942 -1.18573,-0.40287 -5.546144,1.65031 -17.320327,4.35905 -18.789227,4.3226 -0.94534,-0.0234 2.945236,-1.23863 8.645725,-2.70041 11.194093,-2.8705 16.088288,-5.00706 23.385475,-10.2089 4.139587,-2.95092 4.414997,-3.03947 2.356202,-0.7575 -1.282214,1.42121 -4.328431,3.67098 -6.769371,4.99951 -2.440939,1.32853 -4.22322,2.76314 -3.960622,3.18804 0.524096,0.84799 8.893907,-3.9995 10.73413,-6.21683 0.632772,-0.76244 1.57237,-1.38626 2.087995,-1.38626 1.66276,0 -1.421584,2.91769 -6.557238,6.20292 -5.293331,3.3861 -22.720407,8.85206 -27.819311,8.72546 -1.703726,-0.0423 0.377383,-0.82676 5.084465,-1.91654 z m -52.5,-5.01902 c 0,-0.24457 -1.265625,-1.09915 -2.8125,-1.89907 -3.5258283,-1.82328 -3.7391633,-1.03135 -0.234375,0.87003 2.946143,1.5983 3.046875,1.63233 3.046875,1.02904 z m 45,-0.83893 3.28125,-0.12264 0.541313,-6.09375 0.541314,-6.09375 0.161811,6.19812 c 0.157275,6.02432 0.225669,6.18592 2.439077,5.7628 1.589562,-0.30387 2.13441,-0.90162 1.804213,-1.97938 -0.412666,-1.34694 -0.341178,-1.33959 0.56003,0.0577 0.568194,0.88092 1.654735,1.36313 2.414536,1.07157 2.108705,-0.80919 2.084124,-94.07952 -0.02479,-94.07952 -1.215974,0 -1.43524,4.027517 -1.620506,29.76563 L 68.008988,135.46875 67.520119,105.9375 67.03125,76.40625 64.6875,76.737244 c -1.289063,0.182045 -2.653696,0.814858 -3.032519,1.40625 -0.499834,0.780303 -0.692708,0.753799 -0.703125,-0.09662 -0.02292,-1.870836 -3.760044,-1.409133 -3.794171,0.46875 -0.02696,1.483487 -0.139202,1.497392 -1.171875,0.145177 -0.875091,-1.145869 -3.771873,-1.653593 -12.39206,-2.171973 -6.1875,-0.372089 -13.144786,-1.032203 -15.460634,-1.46692 -5.44992,-1.023025 -5.603765,-0.879026 -5.794928,5.424044 L 22.176377,85.78125 21.635063,79.760722 C 19.778691,59.114007 17.8125,96.268847 17.8125,151.9952 c 0,12.25621 0.191551,13.97881 1.640625,14.75401 1.5484,0.82832 1.659198,-1.39638 1.971027,-39.5764 C 21.605873,104.92308 21.92228,86.542969 22.127277,86.328125 22.332275,86.113282 22.5,104.37262 22.5,126.90443 c 0,36.05908 0.173313,41.03342 1.446682,41.52206 2.163157,0.83008 2.363011,0.26954 2.939582,-8.24487 0.721932,-10.66098 1.238736,-10.48346 1.238736,0.42552 0,8.60707 0.102048,9.06873 2.109375,9.54261 4.476558,1.05683 18.202617,2.13339 21.328125,1.67281 1.804687,-0.26594 4.757812,-0.53871 6.5625,-0.60617 z m 4.040502,-17.93514 c 0.0053,-3.09375 0.180282,-4.24635 0.388933,-2.56133 0.208652,1.68501 0.204346,4.21626 -0.0096,5.625 -0.213913,1.40873 -0.384628,0.0301 -0.379366,-3.06367 z m 5.689031,-5.15625 c 0,-5.92969 0.152221,-8.35547 0.338268,-5.39063 0.186048,2.96485 0.186048,7.81641 0,10.78125 -0.186047,2.96485 -0.338268,0.53907 -0.338268,-5.39062 z m -40.257587,-26.25 c 0,-13.66406 0.131057,-19.25391 0.291238,-12.42187 0.160181,6.83203 0.160181,18.01171 0,24.84374 -0.160181,6.83204 -0.291238,1.24219 -0.291238,-12.42187 z m 34.495557,2.8125 c 0,-1.80469 0.192933,-2.54297 0.42874,-1.64062 0.235807,0.90234 0.235807,2.3789 0,3.28125 -0.235807,0.90234 -0.42874,0.16406 -0.42874,-1.64063 z m 0.168063,-20.625 c 0,-9.023438 0.14061,-12.714844 0.312467,-8.203125 0.171856,4.511715 0.171856,11.894535 0,16.406255 -0.171857,4.51171 -0.312467,0.82031 -0.312467,-8.20313 z M 75,122.24345 C 75,81.707605 74.82477,75.9375 73.59375,75.9375 c -1.231238,0 -1.40625,5.830064 -1.40625,46.84558 0,41.25534 0.167812,46.78118 1.40625,46.30595 C 74.817487,168.61943 75,162.53946 75,122.24345 Z m 2.620769,-0.8372 C 77.509852,95.882812 77.085741,75 76.6783,75 c -0.40744,0 -0.7408,20.882812 -0.7408,46.40625 0,30.47558 0.323537,46.40625 0.942468,46.40625 0.621647,0 0.873819,-15.79693 0.740801,-46.40625 z m 3.241618,-2.11861 c 0.12725,-24.87404 -0.08504,-45.225444 -0.471762,-45.225336 -0.386719,1.08e-4 -0.669819,20.77754 -0.629112,46.172076 0.04071,25.39453 0.253,45.74593 0.471762,45.22533 0.218763,-0.52059 0.501863,-21.29802 0.629112,-46.17207 z m -63.781763,-8.94689 c 0.21529,-20.523522 0.04616,-37.528889 -0.375844,-37.789702 -0.422004,-0.260813 -0.769042,2.820225 -0.771194,6.846749 -0.0022,4.026524 -0.189097,25.039703 -0.41543,46.695953 -0.260081,24.88537 -0.120333,36.09758 0.379759,30.46875 0.435201,-4.89844 0.967419,-25.69823 1.182709,-46.22175 z m -3.886747,7.48343 c 0.153444,-41.767787 -0.04118,-47.851873 -1.484588,-46.408469 -0.697361,0.697362 -0.623035,90.685889 0.07583,91.816689 1.172893,1.89778 1.2433,-0.37162 1.408758,-45.40822 z m 71.133042,22.33207 C 84.403991,125.11273 84.109356,116.25 83.532177,116.25 c -0.573928,0 -0.917898,8.94743 -0.919037,23.90625 -0.001,13.14844 0.356633,23.90625 0.794742,23.90625 0.438109,0 0.851676,-10.75781 0.919037,-23.90625 z m 3.65839,-11.45322 C 87.804326,110.41179 87.339844,95.250628 86.953125,95.011547 86.566406,94.772456 86.25,110.02508 86.25,128.90625 c 0,24.74693 0.288116,34.15134 1.032184,33.69148 0.729994,-0.45116 0.935846,-10.37441 0.703125,-33.8947 z M 9.1555607,69.890625 C 8.5378,69.124404 7.9556063,73.035377 8.3497083,75.304059 8.4235446,75.729104 8.1454844,75.867682 7.7317967,75.612008 7.3181091,75.356335 7.0277334,73.484938 7.0865176,71.453348 7.1631601,68.804569 6.7063087,67.455357 5.4716989,66.68433 3.0749696,65.187548 2.746037,156.4372 5.1409967,158.42484 c 1.2228565,1.01488 1.4230698,-1.94597 1.6563317,-24.49458 l 0.2653349,-25.64901 0.2186684,26.32812 c 0.1202675,14.48048 0.5350745,26.64526 0.9217933,27.03286 0.9303356,0.93248 1.880502,-90.600506 0.9524357,-91.751605 z M 91.824752,114.76415 c 0.07035,-28.85979 -0.214918,-44.398425 -0.808369,-44.031653 -0.575321,0.355569 -0.943942,17.178639 -0.989151,45.142573 -0.04457,27.57155 0.263794,44.36822 0.808369,44.03166 0.526446,-0.32537 0.924144,-18.47537 0.989151,-45.14258 z m 4.136014,38.28272 C 97.168594,145.73952 96.645009,68.253762 95.390625,68.671663 93.91845,69.16212 93.01052,156.5625 94.477594,156.5625 c 0.496143,0 1.163569,-1.58203 1.483172,-3.51563 z M 84.346492,90.703125 C 84.330817,80.777344 84.014407,73.289062 83.643367,74.0625 c -0.714858,1.490133 -0.423263,34.6875 0.304684,34.6875 0.234822,0 0.41412,-8.12109 0.398441,-18.046875 z m 3.717114,-8.406769 c 0.0859,-5.783879 -0.08965,-10.270312 -0.390109,-9.969853 -0.752001,0.752002 -1.099203,20.488177 -0.36041,20.486969 0.326886,-5.34e-4 0.66462,-4.733237 0.750519,-10.517116 z M 77.22324,73.483611 c 4.080163,-0.653307 7.88581,-1.696158 8.456994,-2.31745 0.7949,-0.864633 0.598678,-0.956733 -0.836484,-0.392612 -1.03125,0.405356 -5.671875,0.843857 -10.3125,0.974448 -4.640625,0.130591 -6.644531,0.04771 -4.453125,-0.184183 2.191406,-0.231892 3.984375,-0.760738 3.984375,-1.175213 0,-0.414476 -1.160156,-0.543483 -2.578125,-0.286684 -1.417969,0.256799 -2.296956,0.163221 -1.953305,-0.20795 0.343651,-0.371171 3.688585,-1.059557 7.433185,-1.529746 6.775997,-0.850824 16.000772,-3.756806 18.590517,-5.856369 1.105425,-0.896196 1.247559,-0.804591 0.762253,0.491278 -0.42645,1.138722 -0.209203,1.444247 0.761972,1.071574 1.42365,-0.546308 1.7592,-2.873163 0.781669,-5.420552 -0.492338,-1.28301 -0.880275,-1.175775 -2.64841,0.732073 C 84.23313,71.228897 25.409497,71.071327 9.2014973,59.151831 4.3844309,55.60932 4.0967326,55.593083 3.4656448,58.828125 1.2163375,70.358378 43.84345,78.828299 77.22324,73.483611 Z M 16.875,68.819482 c -3.351562,-1.286379 -6.726562,-3.035622 -7.5,-3.887206 -1.25,-1.376298 -1.25,-1.43763 0,-0.551992 0.773438,0.547988 4.886719,2.165867 9.140625,3.595284 4.253906,1.429419 7.734375,2.750928 7.734375,2.936687 0,0.887263 -3.849831,0.02787 -9.375,-2.092773 z m 1.044745,-2.707305 C 10.95508,63.857578 7.5013519,61.875 10.538422,61.875 c 0.846132,0 1.765223,0.366972 2.042425,0.815495 0.277202,0.448522 3.255224,1.60341 6.617828,2.566416 4.418424,1.265381 8.960348,3.69001 5.87945,3.138644 -0.128906,-0.02307 -3.350177,-1.050589 -7.15838,-2.283378 z m 61.882919,3.452263 c -1.741346,-0.179311 -3.523322,0.03122 -3.959943,0.467839 -0.436623,0.436623 0.988115,0.583332 3.166084,0.32602 3.862463,-0.456324 3.882005,-0.475867 0.793859,-0.793859 z M 65.625,66.619864 c 4.163008,-0.129219 5.499675,-0.428831 4.21875,-0.945624 -1.492808,-0.602278 -0.980863,-0.895154 2.511563,-1.436822 2.41261,-0.374192 4.903574,-0.360819 5.535477,0.02972 0.693845,0.42882 0.908441,0.320975 0.54179,-0.272278 -0.772545,-1.250004 3.569572,-2.379559 6.256522,-1.627567 1.334341,0.37344 1.619078,0.281536 0.831169,-0.268274 -0.890505,-0.621402 -0.578033,-1.119002 1.215987,-1.936412 2.951974,-1.34501 3.547159,-1.379636 2.794992,-0.162605 -1.216012,1.96755 1.160302,0.822431 3.404572,-1.640625 3.271028,-3.589906 2.909575,-5.867118 -1.28222,-8.078162 -1.926457,-1.016148 -3.741163,-2.599032 -4.03268,-3.517521 -0.291517,-0.91849 -2.663039,-3.455835 -5.270047,-5.638547 l -4.740017,-3.968566 -1.539804,1.998568 C 73.787645,42.11887 70.66455,42.942515 59.398533,43.552145 53.799652,43.855113 46.476562,44.319632 43.125,44.58441 c -4.270178,0.33735 -7.215948,0.04507 -9.84375,-0.9767 -2.0625,-0.801963 -2.695313,-1.211739 -1.40625,-0.910613 7.315882,1.708993 10.420752,1.315217 3.8212,-0.484626 -3.828027,-1.043986 -8.019508,-2.592342 -9.314402,-3.440789 -1.905607,-1.248602 -1.682143,-0.722288 1.172409,2.761317 1.939718,2.36717 4.934664,5.13463 6.655436,6.14991 3.223385,1.901844 3.520105,6.837345 0.587373,9.770077 -1.654261,1.654261 -14.247714,1.243897 -17.687641,-0.576362 -4.356889,-2.305474 -3.774503,-2.464866 1.875,-0.513165 2.707031,0.935183 6.1875,1.68634 7.734375,1.66924 2.167107,-0.02395 1.671747,-0.338118 -2.158685,-1.36905 -5.628693,-1.514921 -9.035354,-3.125858 -8.256764,-3.904448 0.289513,-0.289513 1.063927,-0.102566 1.720918,0.415437 0.656992,0.518004 2.315495,1.209134 3.685561,1.535846 1.370067,0.326713 3.268505,0.885747 4.21875,1.242299 1.521915,0.571054 1.574453,0.459856 0.441053,-0.933502 -0.707666,-0.869978 -1.998128,-1.581779 -2.867691,-1.581779 -0.869563,0 -2.399938,-0.619395 -3.400833,-1.376435 -2.106106,-1.592977 -1.137012,-1.889215 1.523073,-0.46558 1.250001,0.668979 1.813368,0.668979 1.813368,0 0,-0.533767 -0.607914,-0.970485 -1.350922,-0.970485 -0.743007,0 -1.655963,-0.493567 -2.028792,-1.096818 -0.455793,-0.737488 -0.166784,-0.900695 0.882172,-0.498173 2.076917,0.796988 1.966887,0.202165 -0.484022,-2.616628 C 17.273282,42.753007 14.017817,44.039007 8.4285282,51.164546 2.3932708,58.85863 28.246378,67.748574 54.375,66.963868 c 2.835937,-0.08517 7.898437,-0.239972 11.25,-0.344004 z M 75,60.991804 c 4.382812,-0.911436 8.8125,-1.991418 9.84375,-2.39996 1.434771,-0.568401 1.631345,-0.477758 0.837237,0.386063 C 84.367658,60.406534 74.638652,62.761115 70.3125,62.697336 68.189028,62.66603 69.842995,62.064239 75,60.991804 Z M 17.913531,59.989085 c -2.780371,-1.000051 -5.311621,-2.106736 -5.625,-2.459301 -0.313379,-0.352565 0.273969,-0.331224 1.305219,0.04742 1.03125,0.378646 4.40625,1.335375 7.5,2.126064 3.09375,0.790688 5.800781,1.602791 6.015625,1.804672 1.10896,1.042051 -4.780302,0.06934 -9.195844,-1.518855 z m 57.288571,-1.837231 c 3.462718,-0.923394 8.028431,-2.581968 10.146028,-3.685721 2.117596,-1.103753 3.581929,-1.572794 3.254073,-1.042311 -1.401479,2.267641 -13.813771,6.719038 -18.101069,6.491553 -0.877187,-0.04655 1.238249,-0.840129 4.700968,-1.763521 z m 15.7542,-0.51826 c 0.652238,-0.785897 1.378951,-1.23584 1.614919,-0.999872 0.650155,0.650153 -0.670821,2.428778 -1.803842,2.428778 -0.621649,0 -0.550529,-0.537921 0.188923,-1.428906 z m -1.811658,-1.745245 c 1.172042,-1.347967 2.3173,-2.450849 2.54502,-2.450849 0.842663,0 -2.360917,4.130001 -3.497443,4.508843 -0.648209,0.21607 -0.219619,-0.710027 0.952423,-2.057994 z M 74.0625,55.22243 c 3.351562,-0.984328 7.78125,-2.656385 9.84375,-3.71568 l 3.75,-1.925993 -2.196109,1.914504 c -2.113997,1.84292 -13.499164,5.785084 -16.186216,5.604547 -0.717846,-0.04823 1.437012,-0.893051 4.788575,-1.877378 z m -8.90625,-0.729359 c 1.03125,-0.433888 3.5625,-1.052956 5.625,-1.375708 2.379962,-0.372429 3.064981,-0.298606 1.875,0.202066 -1.03125,0.433888 -3.5625,1.052956 -5.625,1.375708 -2.379962,0.372429 -3.064981,0.298606 -1.875,-0.202066 z m -2.34375,-2.9089 c 0,-0.3839 2.003906,-0.942012 4.453125,-1.240249 C 72.752595,49.675786 81.5625,46.872739 81.5625,45.795087 81.5625,45.357789 82.009273,45 82.555328,45 84.426993,45 82.271326,47.066221 78.953277,48.45259 74.778928,50.196744 62.8125,52.518432 62.8125,51.584171 Z m 13.125,0.227695 c 0.773437,-0.297059 3.199219,-1.303449 5.390625,-2.236421 2.191406,-0.932972 3.984375,-1.510214 3.984375,-1.282759 0,0.742743 -7.813734,4.209257 -9.316715,4.133301 -1.265098,-0.06393 -1.273035,-0.147564 -0.05828,-0.614121 z M 64.21875,47.811075 c 7.132506,-1.072741 12.944288,-2.824207 14.765625,-4.449839 0.97954,-0.874287 1.640625,-1.037727 1.640625,-0.405612 0,2.332238 -11.481754,5.935103 -18.09302,5.677417 -2.234678,-0.0871 -1.804066,-0.296939 1.68677,-0.821966 z M 33.258026,45.899923 c -0.395266,-0.639553 0.311531,-0.755468 2.054047,-0.336865 3.59195,0.86289 3.931922,1.311942 0.993256,1.311942 -1.34457,0 -2.715856,-0.438785 -3.047303,-0.975077 z m 30.704458,-0.870257 c 3.468429,-0.444398 7.650194,-1.478451 9.29281,-2.297897 1.642617,-0.819445 3.193804,-1.28267 3.447085,-1.029391 1.071238,1.071239 -7.330582,3.559355 -12.952379,3.83572 l -6.09375,0.299565 z m -29.425467,9.769972 c 1.354081,-2.971885 1.38413,-4.818453 0.09141,-5.617398 C 33.389603,48.416606 30,51.369503 30,53.214352 c 0,0.888915 -0.569277,1.163159 -1.640625,0.790357 -1.126594,-0.392026 -0.947187,0.01715 0.57261,1.305948 2.936606,2.490268 4.293938,2.366518 5.605032,-0.511019 z m -2.486236,-1.420732 c 0.225586,-0.676758 0.963867,-1.415039 1.640625,-1.640625 0.703125,-0.234375 1.054688,0.117188 0.820313,0.820313 -0.225586,0.676758 -0.963867,1.415039 -1.640625,1.640625 -0.703125,0.234375 -1.054688,-0.117188 -0.820313,-0.820313 z m -1.216513,-4.035769 c 0.814556,-0.981481 0.69048,-1.585621 -0.529487,-2.578125 -1.41394,-1.150312 -1.517223,-1.093589 -0.917307,0.503785 0.414526,1.103744 0.210439,2.095475 -0.527596,2.56377 -0.761317,0.483068 -0.81517,0.768997 -0.146545,0.778077 0.581396,0.0079 1.535817,-0.562483 2.120935,-1.267507 z m 60.466308,-1.93671 c -0.283568,-0.738965 0.623453,-3.287182 2.015602,-5.662704 2.459666,-4.197109 2.482944,-4.372435 0.823681,-6.205892 -1.686197,-1.863231 -1.722844,-1.834107 -2.938601,2.33535 -1.203735,4.128231 -2.642687,5.99789 -3.757883,4.882693 -0.306284,-0.306283 0.143658,-1.330966 0.999872,-2.277071 2.325168,-2.569281 1.900648,-4.451165 -1.490122,-6.605663 l -3.046875,-1.935988 -2.284298,2.274529 -2.284299,2.274529 2.523732,1.985168 c 3.429577,2.697705 5.326115,4.649506 5.326115,5.48131 0,0.750601 3.564659,4.797312 4.225847,4.797312 0.221543,0 0.170796,-0.604608 -0.112771,-1.343573 z m -66.316382,-4.83507 c 0.207034,-3.578205 -10.157164,-8.602559 -12.720952,-6.166862 -0.905587,0.86034 -2.4287564,2.016657 -3.384821,2.569592 -1.3817992,0.799158 -1.4794219,1.165335 -0.4760088,1.785478 0.816334,0.504522 1.0407009,0.421598 0.6350763,-0.234717 -1.6172073,-2.616696 3.5105265,-2.067135 9.5016245,1.018331 3.46755,1.785816 6.304637,3.293865 6.304637,3.351218 0,0.05736 0.0632,-0.988015 0.140444,-2.32304 z m 30.437057,-1.086982 c 0.103573,-1.5625 0.129168,-1.5625 0.537492,0 C 57.25542,46.446264 60,43.103621 60,36.5625 c 0,-6.231193 -3.558333,-10.811112 -3.824013,-4.921875 -0.05895,1.306812 -0.182931,1.3545 -0.609322,0.234375 -0.889091,-2.335627 -2.316686,-2.783151 -8.92604,-2.798144 L 40.3125,29.0625 l 0,6.503102 0,6.503101 3.046875,0.378113 c 8.18306,1.01551 11.950692,0.714882 12.061876,-0.962441 z M 63.503764,35.625 c -0.01208,-6.285719 -0.782483,-8.245107 -1.997212,-5.079575 -1.164889,3.035652 -0.632342,11.642075 0.720386,11.642075 0.972648,0 1.286339,-1.612278 1.276826,-6.5625 z m 2.319273,1.641208 c -0.453847,-8.252423 -0.87342,-9.033224 -1.007866,-1.875583 -0.07022,3.738281 0.188735,6.797138 0.575454,6.797458 0.386719,3.21e-4 0.581304,-2.214523 0.432412,-4.921875 z M 39.375,34.6875 c 0,-5.363448 -1.617957,-9.794829 -1.96819,-5.390625 C 36.592179,39.540924 36.676416,41.25 37.995953,41.25 39.078344,41.25 39.375,39.838299 39.375,34.6875 Z m 29.934108,-1.328125 c 0.09083,-6.354113 -0.567808,-5.096837 -1.186881,2.265625 -0.322509,3.835514 -0.209742,5.398908 0.304298,4.21875 0.449179,-1.03125 0.846342,-3.949219 0.882583,-6.484375 z m 2.878392,1.272797 c 0,-4.173157 -0.346319,-6.403792 -0.9375,-6.038422 -1.683522,1.040474 -1.109903,12.65625 0.625,12.65625 0.171875,0 0.3125,-2.978023 0.3125,-6.617828 z M 34.817533,27.880033 C 33.789528,26.852028 31.875,27.732074 31.875,29.232621 c 0,0.628675 0.519482,0.565831 1.40625,-0.170121 1.224414,-1.016174 1.429607,-0.333982 1.586888,5.275833 l 0.180636,6.442917 0.33646,-5.998528 c 0.185053,-3.29919 -0.07041,-6.4054 -0.567701,-6.902689 z m -2.269801,5.179733 c -0.215488,-1.425059 -0.397555,-0.481641 -0.404594,2.096484 -0.007,2.578125 0.16927,3.744082 0.391797,2.591016 0.222527,-1.153067 0.228286,-3.262442 0.0128,-4.6875 z m 42.749381,3.737109 c 1.192217,-4.618992 0.682241,-10.128492 -0.764416,-8.258316 -1.529313,1.977029 -1.95616,9.898941 -0.533373,9.898941 0.480878,0 1.064884,-0.738281 1.297789,-1.640625 z m -9.203363,-10.022966 5.625,-1.269277 -13.78198,-0.09606 C 50.356681,25.355729 42.130118,24.918029 39.65552,24.435898 30.197044,22.593083 27.634447,22.3319 28.59375,23.308466 c 0.515625,0.524905 2.090697,1.161347 3.50016,1.414316 1.409463,0.25297 2.929663,0.686766 3.378222,0.96399 0.448559,0.277226 3.514112,0.771134 6.81234,1.097575 3.298228,0.326441 6.172559,0.761632 6.387403,0.967091 0.878711,0.840327 12.174547,0.206525 17.421875,-0.977529 z m 12.041035,-5.182374 c 4.586104,-1.404025 4.066048,-2.061985 -0.768054,-0.971718 -2.170365,0.489496 -4.270172,0.479961 -5.12993,-0.0233 -1.106483,-0.647678 -0.781061,-0.860226 1.356949,-0.886288 1.546875,-0.01885 4.020879,-0.664497 5.497788,-1.434758 3.417669,-1.782437 4.691085,-1.777084 4.002695,0.01683 -0.482933,1.258506 -0.244303,1.262391 2.129841,0.03467 C 93.282819,14.159638 88.09855,6.9967647 74.992964,4.1911087 57.286298,0.40044928 39.697434,1.3391816 19.45213,7.1553694 13.058937,8.9920427 16.816286,19.815626 23.261932,18.130052 c 1.117467,-0.292225 3.020428,0.343364 4.662184,1.557167 4.893171,3.617677 40.2358,4.958101 50.210669,1.904316 z M 69.84375,17.8125 c 0.318674,-0.515625 1.373362,-0.9375 2.34375,-0.9375 0.970388,0 2.007361,-0.393211 2.304383,-0.873803 C 74.810636,15.485443 73.200677,15.310448 70.562836,15.57413 60.696227,16.560406 37.785018,16.400892 36.473934,15.336794 35.749208,14.748593 33.45835,14.036015 31.38314,13.753287 20.657737,12.292055 18.647069,7.5967229 28.430069,6.8572473 L 32.34375,6.5614207 29.296875,7.9229536 C 25.324869,9.6978919 25.422332,10.301711 29.53125,9.375 31.3877,8.9563026 32.8125,8.9991732 32.8125,9.4737291 c 0,0.461324 -0.949219,0.8877089 -2.109375,0.9475219 -1.882473,0.09705 -1.907684,0.152675 -0.234375,0.517077 1.03125,0.224578 2.71875,0.798399 3.75,1.275154 1.39013,0.642669 5.026659,-0.196556 14.0625,-3.2452947 10.646784,-3.5922795 12.327308,-3.9337562 13.293413,-2.7011791 0.780056,0.9952079 1.947318,1.2261421 3.961502,0.7837532 7.939094,-1.7437176 4.936222,1.6554251 -4.598665,5.2055216 -4.740653,1.765073 -5.584332,2.341442 -3.799555,2.595716 3.600542,0.51296 14.542877,-0.881329 13.239317,-1.686974 -1.305706,-0.806971 1.623312,-1.840327 5.560238,-1.961649 2.334589,-0.07194 2.335505,-0.07554 0.234375,-0.92009 C 73.107241,9.0514532 73.586806,8.4319584 76.875,9.375 80.599478,10.443167 80.4634,9.6217247 76.640625,7.9601887 74.023524,6.8226885 73.897852,6.6307148 75.749681,6.5991954 c 7.85632,-0.13372 9.527651,5.1904526 2.357131,7.5088486 -2.139847,0.691862 -1.885588,0.75254 1.346313,0.321297 5.027972,-0.6709 5.044459,0.01472 0.05828,2.423779 -4.081206,1.971824 -10.699279,2.628575 -9.667655,0.95938 z M 60.703519,9.375 c 0.189551,0 0.09752,-0.3998387 -0.204504,-0.8885303 -0.316487,-0.5120855 -4.120769,0.353509 -8.979323,2.0430793 -4.965436,1.726739 -7.966841,3.217971 -7.302813,3.628362 0.620052,0.383214 4.505661,-0.536172 8.634685,-2.043079 C 56.980589,10.607924 60.513968,9.375 60.703519,9.375 Z m -37.173504,6.042664 c -1.753803,-0.76117 -2.95377,-1.618909 -2.666592,-1.906088 0.287179,-0.287178 2.143984,0.333465 4.126235,1.379207 4.181115,2.205759 3.21345,2.555053 -1.459643,0.526881 z M 35.297497,7.0612734 C 35.007038,6.3043489 35.176613,5.4333679 35.674334,5.1257602 37.098506,4.2455733 40.3125,5.6097502 40.3125,7.094426 c 0,1.786807 -4.327598,1.7581987 -5.015003,-0.033153 z"
     id="path4177"
     inkscape:connector-curvature="0"
     sodipodi:nodetypes="ssscssscsssscccsscsssssssssssssscsssssscssssssssssscsssscsssssssssscccssscssscccsssssssscsssssssssssscscccssssssssssssssssssssssssssssssssscssssssssssssscsssssssssscsssssscssssssssssssssssssssssssssssssssssssssssssssssssssssssssssscsssssssssssssssssssssssssssssssssssssssssssssssssssssssscsssssssssssssssssssssssssssssssscssssssssssssssssssssssssscccsssssssssssssssssscccsssssssssssssssssssssssssscssscssssssscssssssssssssssssssssssssssscsssssssssssssssssssssssssssssssssss" />
</svg>
