<svg xmlns="http://www.w3.org/2000/svg" xmlns:xlink="http://www.w3.org/1999/xlink" version="1.1" x="0px" y="0px" viewBox="0 0 100 125" enable-background="new 0 0 100 100" xml:space="preserve"><g><path d="M36.765,70.827l-1.162-14.405l6.841-6.841c-4.426-2.903-9.6-4.465-15.016-4.465c-15.14,0-27.457,12.317-27.458,27.457   c0.001,15.14,12.319,27.457,27.457,27.457c15.14,0,27.457-12.318,27.457-27.458c0.001-5.511-1.612-10.775-4.615-15.251   L36.765,70.827z M31.868,77.376c0.001,5.414-4.403,9.819-9.818,9.82c-5.414-0.001-9.818-4.406-9.82-9.819   c0.002-5.414,4.406-9.819,9.819-9.82C27.464,67.558,31.868,71.962,31.868,77.376C31.868,77.376,31.868,77.376,31.868,77.376z"/><path d="M95.017,21.922l4.952-4.952L83.033,0.031l-4.952,4.952l5.992,5.993l-3.898,3.898l-6.113-6.112L49.563,33.262   c-2.294,2.294-3.558,5.344-3.558,8.588c0,1.991,0.48,3.906,1.378,5.62l-9.629,9.63l0.784,9.122l13.746-13.748   c1.82,1.004,3.841,1.515,5.866,1.515c3.109,0,6.22-1.183,8.587-3.549l24.503-24.5l-6.113-6.112l3.897-3.897L95.017,21.922z    M63.201,46.901L63.201,46.901c-2.787,2.784-7.317,2.782-10.1-0.001c-1.349-1.349-2.093-3.143-2.093-5.05   c0-1.908,0.743-3.701,2.092-5.05l2.401-2.401h20.203L63.201,46.901z"/></g><text x="0" y="115" fill="#000000" font-size="5px" font-weight="bold" font-family="'Helvetica Neue', Helvetica, Arial-Unicode, Arial, Sans-serif">Created by LAFS</text><text x="0" y="120" fill="#000000" font-size="5px" font-weight="bold" font-family="'Helvetica Neue', Helvetica, Arial-Unicode, Arial, Sans-serif">from the Noun Project</text></svg>