<?xml version="1.0" encoding="utf-8"?>
<!-- Generator: Adobe Illustrator 18.0.0, SVG Export Plug-In . SVG Version: 6.00 Build 0)  -->
<!DOCTYPE svg PUBLIC "-//W3C//DTD SVG 1.1//EN" "http://www.w3.org/Graphics/SVG/1.1/DTD/svg11.dtd">
<svg version="1.1" id="Слой_2" xmlns="http://www.w3.org/2000/svg" xmlns:xlink="http://www.w3.org/1999/xlink" x="0px" y="0px"
	 viewBox="0 128 1590 831" enable-background="new 0 128 1590 831" xml:space="preserve">
<path fill="#000000"    d="M1161.8,354.3c-4.5-6.6-12.2-10.2-17.5-16.6
	c-4.8-5.6-8.6-11.9-12.3-18.3c-4.1-7-7-14.8-10.6-22.1c-3.4-7-8.5-13.4-11-20.8c-2-6.2-5.2-15.2-5.8-21.6
	c-0.8-8.7,3.3-17.4-0.8-25.4c-2-4-2.5-9.7-2.5-9.7s5.6-6.1,7.7-8.5c5.3-5.6,11.3-11.1,15.1-18c4.4-8,5.2-15.2,3.6-23.9
	c-2-10.5-6.1-12.3-16.4-9.5c-14.8,4-33.7,11.8-49.2,7.2c1.2-3.2,4.6-10.5,9.7-11.8c0.8-1.2-5.7-0.8-5.6-2c-3.2,0.3-6.8-0.1-9.3-2.4
	c2-1.3,3.3-3.2,3.8-5.3c-5.4,0.5-10.1,4.1-15-1.5c1.3-2,3.6-3.3,5.2-5c-3.8-0.4-7.9,0-11.8-0.4c0.3-0.7,0.7-1.1,0.9-1.7
	c-2,0.1-4.1-0.5-6.1-0.1c0.7-0.5,1.2-1.6,1.7-2c-13.3-1.3-22.5,8.1-33.9,12.5c0.1-0.5,0.1-1.1-0.1-1.6c-8.1,3-14,7.2-22.8,8.6
	c-8.2,1.3-120.4,8.7-156.6,22.9c-16.4,6.5-33.9,9.1-51.1,12.3c-17.4,3.3-36.7,1.6-55,2c-18.4,0.4-38.2,6.9-54.7,13.1
	c-16.4,6.2-33.9,9.1-51.4,12.1c-18.5,3-36.7,3-55.8,4.6c-9.5,0.8-48.9,6.1-59.1,7.4c-36,4.4-73,2.6-109.4,5.6
	c-19.2,1.6-75.3,2-84.3,3.4c-9.8,1.7-20.5,0.8-30.6,0.8c-19.1,0-36.3-4-54.7-6.6c-17.1-2.5-33.4-8.7-51.4-7.6
	c-16.7,1.1-36.2,5.6-51.4,13.1c-15.4,7.7-26,22.8-39.5,32.6c-7.7,5.6-34.3,30.2-39.6,37.2c-9.9,13-17.8,26.2-21.3,42
	c-3.7,16-3.6,34.3-3.6,51.1c0,18.4,3.6,33.1,6.4,50.4c0.7,3.8,2,7.6,3.3,11.3c-0.1,5-0.1,10.1,0.3,15c1.3,16.4,3.8,34.2,7.6,50.3
	c7.6,33.1,17.6,65.7,9.7,100.4c-0.8,3.2-2.1,6.6-2.9,9.9c0.5-0.8,2.4-2.3,2.9-3c1.3,12.1-8,25.6-5,37.1c1.9-1.7,2.1-5.6,2.8-7.6
	c1.5,12.5,0,25,2.4,36.8c0-3.3-0.5-6.4,1.2-9.1c3.3,7.4,1.7,17.8,3.4,25.8c1.3,6.2,4,13.6,4.2,20.5c0.4-3.8,1.2-7.4,0.9-11.4
	c4.1,5,3.4,14,5.3,19.2c0.9-7.4,0.3-15.4,0.3-22.9c0-7.9-3-16.3-2.3-23.7c2.9,6.4,4.6,13,6.4,19.6c1.7,6.8-1.1,19.6,2.3,24.8
	c1.3-10.9,0.1-22.8,0.3-33.8c0-5.6-0.7-10.9-1.1-16.4c-0.3-3.6-0.1-11.8-1.6-15.4c1.1,2.3,2.6,4.5,3.4,6.8c1.3,3.6,0.4,8.6,2.5,11.4
	C61.3,684,60,670,60.6,657.9c0.4,2.4,1.6,3.6,3,5c0.9-8.5-1.1-15.4-2.8-23.1c-1.7-7.4-1.2-15.4-3.6-22.7
	c-4.6-14.8-6.1-29.3-8.6-44.9c-2.5-15.6-7.6-31.1-10.7-47c-0.4-2.3-0.8-4.4-1.1-6.6c2.8,7,5.6,14,8.5,20.8c6,14,14.6,26.9,20.5,40.7
	c6.9,15.9,10.9,30.7,13.4,48c1.1,7.6,3.7,15.6,5.4,22.9c2.4,9.5-0.8,16.4-2.5,24.9c-1.6,8.6-0.4,16-4.4,24.1
	c-4.8,9.7-0.1,11.9,6.1,19.9c2.3,2.9,3.7,5.7,6.5,8.5c2.4,2.4,5.7,4.1,7.7,6.8c2.8,3.6,5.4,21.2,5.4,21.2s-7.3,4.1-10.2,7.2
	c-2.4,2.5-3.4,5.6-4.5,8.7c-2.8,7.8-3.4,15.4-7.2,23.2c-6.8,14.7-11.1,30.1-18.2,44.7c-3.4,7.2-6.9,12.3-12.6,18
	c-2.8,2.8-6.1,5.2-7.7,8.7c-1.9,4.5-1.6,3-0.1,8.3c4.1,1.2,9,0.5,12.7,2.5c0,2.7-0.9,4.2-1.7,6.6c-2.3,6.9-7.2,15-5.7,22.8
	c1.2,6.8,7.9,11.8,12.3,17.4c9.8,12.2,26.4,15.4,41.3,16.7c8.5,0.8,18.4,1.3,25.2-4.4c4.8-4.1,13.4-10.6,13.1-17.5
	c0-0.8-0.1-1.6-0.3-2.3c0.7,0.5,1.5,0.9,2.4,1.2c5.2,1.6,9.3-5,12.9-4.2c3.2,0.7,6.5,8.7,6.6,11.5c0.3,4.1-2.6,6.4-0.8,11.1
	c1.3,3.4,3,4.9,6.2,6.9c6.4,3.8,14.2,6.1,21.1,7.4c13.8,2.6,39.8,2.5,51.5-6.6c2.8-2.1,4.2-6.5,6.8-8.6c2.5-2,7.3-1.3,8.6-5.7
	c2.4-7.8-6.6-14.2-11.3-18.4c-2.8-2.5-4.6-5.8-7-8.2c-3.3-3.4-5.3-3.4-9.1-5.2c-7.2-3-11.7-7.7-16.2-14.3
	c-17.8-26.4-32.1-57.5-35.2-88.6c-0.9-9.4-1.1-15.5,2.1-24.1c1.3-3.6,2.1-7.4,3-11.1c0.9-3.8,0-9.4,1.3-13
	c1.7-4.8,7.7-34.5,7.7-34.5s23.7,9,31.8,11c-4.1,7.2-6.9,27,2.8,28c8.7,0.8,14.6-18.2,17.1-25c3.4-0.9,5.4,1.2,8.6,0.9
	c2.6-0.3,9.9,1.9,12.2,1.6c-6.8,28,11.3,40.5,17.5,1.6c0.4-2.7,5.8,0.1,26.1-4.2c5.4-1.2,10.6-5.4,16.2-5.3
	c2.5,5.3,6.5,27.2,17.4,18.2c9.7-8.1-6.1-23.5,6.9-29c10.3-4.4,18.8-9.5,28.6-15.2c10.3-6,23.5-3.2,33.9-0.5c8,2,14,6.6,21.6,8.7
	c8.7,2.4,17.8,0.7,26.2-0.8c8.5-1.5,17.2-3.8,26.2-4.4c9-0.7,18.6,1.3,27.4,0c7-1.1,13.8-4.9,20.8-6.6c8.5-2,17.1-4.6,25.2-6.6
	c8.1-2,15.9-4,23.8-6.8c3.2-1.2,7.2-2.7,10.1-4.1c1.3-0.7,8.1-4.8,5.4-3.3l7.7-4.4c0-0.7,0-1.2,0-1.9c1.9,7.4,3.6,15,5.4,22.7
	c4,16.3,7.3,32.5,12.3,48.2c2.3,7,5,13.9,8.7,20.5c4.1,7.3,4.8,13.1,5.2,22.1c0.9,17.9-1.9,33.7-3.3,51.4c-0.5,7.3-2,17.1-6.6,23.1
	c-4.1,5.3-13.5,10.6-11.9,18.4c7.2,0.5,10.7,0.9,17.5-2.7c-0.7,16.8-15,37.1,5.3,47.4c9.7,4.9,16.7,4.1,27.4,2.5
	c9.1-1.3,16.6-1.6,23.3-8.6c4.4,3.8,10.6-0.4,15-2.4c5.8-2.7,9.4-4.9,8-12.2c-2.1-10.6-11.4-19.1-19.5-25.7
	c12.2-20-10.7-46.1-12.5-66c-1.6-17.6,5.6-30.2,12.3-45.7c3.3-7.8,7.8-14.8,8.5-23.2c0.7-8.9-2-17.1-3.3-25.2
	c-1.3-8.2,0-17.5-1.3-26.1c-1.3-8.5-2-24.4-2-24.4s29.3,5.6,39.2,0.1c-1.9,9.7-3,19.5-5.3,29.4c-3.7,16.6-9.5,32.7-5.2,50.1
	c2.1,8.6,4.8,14.4,4.1,23.2c-0.8,9,0.8,18.4,0.1,27.4c-1.2,14.8-8.2,30.6-11.8,45.1c-3.3,13.8-18.8,28.2-12.1,42.3
	c7.6,2.7,7.2-7.2,12.7-7.3c1.2,7.8-3.8,12.2-4.2,19.6c-0.3,7.3,2,11.8,7.4,16.7c10.2,9.1,24.9,10.7,38.6,9.5
	c7-0.5,11.4-3.4,17.8-5.2c6.9-1.9,14.4,0.7,16.3-9c1.7-9.1-8.7-29.8-17.4-33c-1.1-11.3-0.3-21.3-4.5-31.5
	c-4.1-9.8-5.2-18.2-4.4-29.5c0.7-10.2,1.2-20.7,3-30.6c1.9-9.7,8.1-18.2,11.1-27.3c5-15,4.1-32.3,10.7-46.2
	c3.3-7.2,9.7-13.1,14.3-19.5c4.4-6.1,6.9-14.4,13.1-18.9c6.4-4.6,13.5-6.1,19.6-11.7c5.6-5,12.1-11.1,16.4-17.8
	c8.2-12.6,21.9-21.7,29-35.5c8.1-15.9,7.3-32.6,9.5-49.6c2-14.4,13.5-29.5,18.9-43.5c6.4-16.2,9.3-32.3,10.6-49.6
	c0.7-8.6,1.7-16,5.8-24c2.7-5.3,9.7-17.5,14-18.7l5.4-4.4c1.7,2.3,4.2,3.8,6.6,5.4c14.4,10.2,27.8,15.1,45.7,11.8
	c8.7-1.6,13.1-6.9,22.1-4.4c9.1,2.5,15,2.4,24.1-0.5c7.9-2.7,15.1-3.7,22.9-0.3c6.9,2.9,13.2,8.1,20.5,10.1
	c12.6,3.4,31.7-6.6,42.9-12.3c8.1-4,13.6-4.5,22.9-5.4c10.1-1.1,12.5-7.8,15.4-16.4C1173.8,383.1,1170.4,366.9,1161.8,354.3z
	 M128.1,903.2c-4.5-6.6-2.8-12.9-11.5-16.8c-0.9-9,0.9-18,4-26.4c2.5-7,3-15,5.7-23.3c2.8,8.7,3.2,19.2,5.4,26.9
	c2.9,9.7,6.9,18.3,7.7,28.5c0.4,4.8-3,13.6-2.1,19.9C134.5,908.9,130.5,906.6,128.1,903.2z"/>
<path fill="#000000"    d="M1479.5,510.2c16,0.8,22.4,10.5,26.1,14
	c4.1,4,16.6,23.2,17.8,29.7c0.9,5.6,2.1,11,2.1,16.8c0,12.1-4.6,59-9.3,69.3c-2.7,6-6.1,9.3-6,16c0,2.8-0.5,6.1,0,8.7
	c0.5,2.9,2.5,5,3.4,8c2,5.4,0.5,11.1,1.6,16.8c0.9,4.9,4.9,9.9,8.6,13.9c3.6,4,37.5,17,41.6,18.3c-0.3,5.6,1.9,11.3,2.3,16.7
	c0.5,6.1,0.3,12.3,0.8,18.3c0.8,12.5-1.5,24.6-1.5,36.4c0,6.8-1.5,13.1-1.5,19.7c0,2.4,0.9,6,2.3,8c2,3,3.6,2.3,3.6,6.6
	c0.1,6-2.3,10.9-2.3,16.8c0,6.1,0.3,12.1,0.9,18c0.3,3.4,1.2,10.1,2.9,13.1c1.7,3,8.6,4.1,8.6,8.2c0,5.6-9.4,2-9.4,7.8
	c0,1.1,1.9,4.6,2.3,5.8c0.7,2.1,1.7,4.2,2.1,6.6c2.1-0.5,4.1-1.3,6.4-1.3c1.3,15.4-6.2,31.9-17.4,42.3c-6.4,5.8-10.3,1.9-14.7-4.2
	c-5.7-7.7-5-14.3-5.8-23.3c-5.2-0.8-4.2-11.4-4.2-15.5c0-2.9,0.3-5.3-0.9-7.8c-0.9-2-3.3-3.4-4.1-5.4c-1.9-4.8-0.8-11.8,0-16.7
	c0.9-5.8-4-39.9-5.3-51c-1.2-9.9-4.9-22.9-12.6-30.5c-5.7-5.7-11.7-11.8-17.9-17.1c-4.5-3.8-9.3-7.2-13.9-11
	c-3.2-2.7-5.3-5.7-8.7-7.8c-0.7,6-2.7,28.5-3.8,33.5c-2.7,11.1-7.4,22.1-10.7,33.5c-1.6,5.2-2.8,11-3.7,16.2
	c-0.9,6.1,1.9,11.3-1.5,16c-22.8,34.1,2.8,62.5-22.1,58.2c-2.6-0.5,3.2,6.9,3.6,9.5c0.4,2.3,2,3.4,2.3,5.8c0.4,3.7-1.3,11.3-3,14.4
	c-2.4,0-12.3,17.6-45.8,7.4c-7.2-2.1-6.8-6.5-2.7-12.2c2.5-3.6,9.3-10.5,9.1-14.6c0-0.7-1.9-1.3-2.1-2.3c-0.3-1.7,0.4-2.9,0.9-4.4
	c0.9-2.5,2.6-4.8,3.6-7.2c4.2-10.9,6.1-22.1,7.2-33.7c1.2-12.2,2.9-23.7,4.9-35.8c0.9-5.7-1.9-9.8-3.3-15.4
	c-1.6-5.7-3-11.4-4.5-16.8c-1.5-5.4-1.6-11.7-3.4-17c-2-5.7-7.3-7.7-11.1-12.3c-7.8-9.1-13.5-19.1-19.2-29.7
	c-2.1-4-4.4-8.6-5.4-12.7c-1.1-4-5.3-13.6-13.3-21.7c0,0-11,9.5-17.4,14.8c-6.9,5.6-19.5,8.1-17.8,5.8c-2,0.4-4.4,0.5-6.4,1.2
	c1.1-2,1.1-5.7,1.3-8c0.5-2.8,0.7-4.4-0.1-7.2c-0.7,0-1.3-0.3-2-0.3c-0.1-1.9,0-3.7-0.3-5.6c-6.5-0.9-12.1,2.3-18.2,3.3
	c-2.7,0.5-5.4-0.3-8.1,0.1c-2.4,0.3-4.5,1.9-7.2,1.3c0.3-0.9-0.1-1.7,0.5-2.7c-4,1.6-9,1.1-13,2.1c-4.5,1.2-26.4,4.4-34.3,17.5
	c-5.3,8.6-6.6,16.8-1.3,25.3c1.2,2,3,3.4,4,5.4c1.3,2.7,1.1,1.7,0.9,4.9c-0.3,4.9-1.7,7.3-3.7,11.7c-4.8,10.6-19.9,43.5-23.7,48.9
	c-4.2,6-5.3,9.7-6,16.8c-1.1,11.8,1.3,23.8,2.9,35c0.8,5.8,2.1,11.4,1.5,17.5c-0.7,6.5-3.3,9.7-10.2,9.5c1.7,5.4-0.3,12.9-2.4,17.9
	c-3,7.4-14.8,10.3-22.4,10.3c-7,0-24.9-4.5-30.5-7.4c-1.7-4.9,7.6-12.7,11-15.9c2.7-2.5,5.7-3.8,7.2-7.3c1.5-3.6-0.1-6.5,0-10.2
	c0.1-4.6,3-10.5,4.2-15.2c1.5-5.7,2.1-10.9,3-16.8c2-12.5,3.6-23.2,1.5-35.8c-1.9-11.3-6.8-22.5-5.8-34.3c0.5-5.6,3.3-10.7,3.7-16
	c0.4-4.4-1.9-14.4,0.7-17.5l-0.8-5.2c-12.1-0.8-21.6,2.5-26.9,4.4c-9,3.2-32.9,20.1-36.6,23.2c-3.6,3-7.4,6.8-11.7,8.9
	c-2.7,1.3-5.4,0.9-7.3,2.9c-1.6,1.6-2,5.2-2.3,7.3c-0.4,5.3,0,10.7,0,16c0,11.1-0.9,23.2,1.3,33c0.7,2.9,0.8,5.7,1.6,8.6
	c0.9,2.9,1.3,3,3,5.7c1.9,2.6,2.4,0.4,0.5,3.7c-0.5,0.9-2.3,1.5-2.7,2.5c-1.9,4.1,0.8,3.7,4.2,4.2c3,0.5,5.6,0,7.2,3
	c0.7,1.2,13,34.3,6.8,34.8c-4,0.4-10.9-3.2-14.7-4.2c-2.4-0.7-5.8,0-7.7-1.7c-1.5-1.3-1.1-4.5-3.2-6.2c-2-1.6-4.8-2.1-6.9-4
	c-1.6-1.3-3-2.6-4.8-4c-8.1-6.6-13.9-16.7-16.6-26.5c-1.5-5.4,2-30.6,3.8-36.4c1.7-5.6,3-12.3,3.4-18.3c0.5-6.4,0.7-11.8-5.7-13.2
	c-4.2-7.8-1.5-20-0.8-28.4c0.4-4.4-0.5-9.9,2-13.9c1.9-3,6.9-5,9.8-7.2c7.4-5.2,11.9-13.8,18-20.4c5.7-6.2,10.7-13.1,15.2-19.9
	c-4.9-3.3-10.1-0.9-14-6.5c-2.8-4-4.4-10.2-7.3-13.8c-3.3-4.1-8.5-4.6-11.4-9.8c-2.4-4.2-3.6-9-5.4-13.5c-2.1-5-5-9.1-7.8-14
	c-3.3-5.8-4-7.6-10.2-9.7c-10.2-3.3-18.7-8.6-26.9-15.9c-0.1-0.5,0-0.8,0.7-0.7l-2.9,1.5c-6.1,0-11.9,5.2-18.3,5.2
	c-7,0-13.8-3.4-20.4-4.5c-7.4-1.2-13,5.6-20.4,2.9c-6.8-2.4-12.2-6.1-18.8-8.2c0.3-0.8-0.1-1.7,0.5-2.7c-1.5-1.2-3.8-2.3-4.9-4
	c-1.6-2.7-0.3-6.4-1.1-9.1c-1.5-5.6-4-8.7,2.5-12.3c8.2-4.6,15.8-12.9,19.5-21.3c2.1-4.9,1.6-11.3,2.9-16.7c1.2-5,3-9.4,6-13.6
	c2.8-4.1,5.4-8.2,9.1-11.3c3.8-3.3,8.6-6.2,11.4-10.6c2.9-4.5,2.9-9,7.3-12.3c4.4-3.3,19.5-3.8,19.5-3.8c-0.1-3.7,4.6-17.8,8.2-19.6
	c7-3.6,8.5,4.8,10.1,8.6c1.9,4.2,4.5,9.5,9.3,9.3c2.7-0.1,4-1.7,6.9-0.8c2.1,0.7,4.2,2.4,6.4,3.2c10.9,3.7,22.4,4.2,32.9,7.9
	c9.1,3.3,53.3,21.5,59.1,21.9c6.1,0.4,11.8,1.2,17.5-0.5c3-0.9,5.7-1.1,8.7-1.6c3.3-0.7,5.6-2.8,8.7-4.2c9.8-4.6,25.3-5.2,35.8-3.2
	c5.8,1.1,85.5-6.1,98.4-8s36.4-2.3,49.6-2.3c11.8,0,59.1,5.8,86.8-4.4C1446.5,511.9,1475,509.9,1479.5,510.2z"/>
</svg>
