<?xml version="1.0" encoding="UTF-8" standalone="no"?>
<!DOCTYPE svg PUBLIC "-//W3C//DTD SVG 1.1//EN" "http://www.w3.org/Graphics/SVG/1.1/DTD/svg11.dtd">
<svg version="1.1" xmlns="http://www.w3.org/2000/svg" xmlns:xlink="http://www.w3.org/1999/xlink" preserveAspectRatio="xMidYMid meet" viewBox="0 0 640 640" width="640" height="640"><defs><path d="M233.66 139.41C231.29 142.97 225.35 148.51 218.22 149.31C211.09 150.1 203.56 144.16 190.5 137.82C177.43 131.49 162.77 118.42 140.99 120.79C119.21 123.17 105.35 130.69 95.05 137.43C84.75 143.76 78.42 155.64 85.54 165.15C92.28 174.65 106.53 189.7 112.48 193.27C118.42 196.83 120.4 206.34 137.82 215.05C155.25 224.16 174.26 224.55 186.93 223.37C199.6 222.18 211.09 222.18 211.09 222.18C211.09 222.18 211.09 230.89 214.26 240.4C217.43 249.9 226.93 265.35 229.7 272.87C232.48 280.4 230.89 295.05 230.1 307.33C229.31 319.21 230.5 355.25 233.27 363.56C236.04 371.88 239.21 392.08 237.23 398.02C235.25 403.96 233.27 429.31 235.64 440C238.02 450.69 238.42 454.26 241.19 453.07C243.96 451.88 242.77 432.87 245.94 424.95C249.11 417.03 251.09 415.84 251.09 408.32C251.09 400.4 252.28 395.64 256.63 396.04C260.99 396.44 262.97 399.21 268.12 398.42C273.27 397.62 296.63 372.67 317.23 384.55C321.19 386.93 326.73 337.03 325.15 331.09C325.15 331.09 333.86 287.13 331.09 275.64C328.32 264.16 329.9 242.38 321.98 222.18C313.66 201.98 299.41 192.87 298.22 179.41C297.03 165.54 272.08 172.67 263.37 164.36C254.26 155.25 250.3 129.11 250.3 129.11C246.97 131.17 236.04 135.84 233.66 139.41Z" id="aEF0dIHTA"></path><path d="M137.43 154.06C131.49 156.83 129.9 159.6 129.9 159.6C129.9 159.6 147.72 160.79 152.87 171.09C148.12 171.09 146.14 172.67 146.14 172.67C170.3 181.39 170.69 189.7 205.94 188.91C203.56 193.66 197.62 213.07 167.13 211.49C137.03 209.5 108.51 186.93 98.22 158.02C104.55 152.48 125.54 143.37 137.43 154.06Z" id="a5SQnzEZf"></path><path d="M407.92 139.41C410.3 142.97 416.24 148.51 423.37 149.31C430.5 150.1 438.02 144.16 451.09 137.82C464.16 131.49 478.81 118.42 500.59 120.79C522.38 123.17 536.24 130.69 546.53 137.43C556.83 143.76 563.17 155.64 556.04 165.15C549.31 174.65 535.05 189.7 529.11 193.27C523.17 196.83 521.19 206.34 503.76 215.05C486.34 224.16 467.33 224.55 454.65 223.37C441.98 222.18 430.5 222.18 430.5 222.18C430.5 222.18 430.5 230.89 427.33 240.4C424.16 249.9 414.65 265.35 411.88 272.87C409.11 280.4 410.69 295.05 411.49 307.33C412.28 319.21 411.09 355.25 408.32 363.56C405.54 371.88 402.38 392.08 404.36 398.02C406.34 403.96 408.32 429.31 405.94 440C403.56 450.69 403.17 454.26 400.4 453.07C397.62 451.88 398.81 432.87 395.64 424.95C392.48 417.03 390.5 415.84 390.5 408.32C390.5 400.4 389.31 395.64 384.95 396.04C380.59 396.44 378.61 399.21 373.47 398.42C368.32 397.62 348.51 368.32 316.04 384.55C312.08 386.53 315.64 337.43 317.23 331.88C317.23 331.88 309.7 291.49 312.48 279.6C315.25 268.12 305.74 249.5 313.66 229.31C321.98 209.11 345.35 201.58 346.53 187.72C347.72 173.86 369.11 172.28 377.43 163.96C387.33 155.25 391.29 129.11 391.29 129.11C394.61 131.17 405.54 135.84 407.92 139.41Z" id="aBnfRmoHW"></path><path d="M504.16 154.06C510.1 156.83 511.68 159.6 511.68 159.6C511.68 159.6 493.86 160.79 488.71 171.09C493.47 171.09 495.45 172.67 495.45 172.67C471.29 181.39 470.89 189.7 435.64 188.91C438.02 193.66 443.96 213.07 474.46 211.49C504.55 209.5 532.67 186.93 543.37 158.02C537.03 152.48 516.04 143.37 504.16 154.06Z" id="aXTXEvkSq"></path><path d="M362.38 424.55C354.06 424.16 352.08 407.13 341.39 405.94C330.69 404.75 320.4 411.49 320.4 411.49C320.4 411.49 309.7 404.75 299.41 405.94C288.71 407.13 286.73 423.76 278.42 424.55C270.1 424.95 269.31 419.41 260.59 424.55C252.28 429.7 247.92 442.77 253.07 453.86C258.22 464.95 276.44 473.66 278.02 480C279.6 486.34 283.96 496.24 294.26 496.63C304.95 497.03 320.4 493.86 320.4 493.86C320.4 493.86 335.84 497.03 346.53 496.63C357.23 496.24 361.19 486.34 362.77 480C364.36 473.66 382.57 464.55 387.72 453.86C393.27 443.17 388.51 429.7 380.2 424.55C371.88 419.41 371.09 424.95 362.38 424.55Z" id="a1iljt5qfp"></path><path d="M285.94 454.26C290.3 456.63 298.22 470.5 291.88 472.87C285.54 474.85 274.46 469.31 273.27 463.76C272.08 458.22 276.83 456.63 273.27 453.07C269.7 449.9 266.53 446.73 265.35 441.98C264.16 437.23 262.18 433.66 265.35 433.66C268.12 433.27 270.5 441.58 275.25 442.77C280 443.96 281.58 451.49 285.94 454.26Z" id="e3p97CdzvF"></path><path d="M355.64 454.26C351.29 456.63 343.37 470.5 349.7 472.87C356.04 474.85 367.13 469.31 368.32 463.76C369.5 458.22 364.75 456.63 368.32 453.07C371.88 449.9 375.05 446.73 376.24 441.98C377.43 437.23 379.41 433.66 376.24 433.66C373.47 433.27 371.09 441.58 366.34 442.77C361.58 443.96 360 451.49 355.64 454.26Z" id="cEQPJ5oIg"></path><path d="M380.99 100.2C360 101.78 354.06 96.24 344.95 92.28C335.84 88.32 321.98 90.3 321.98 90.3C321.7 90.3 319.49 90.3 319.21 90.3C319.21 90.3 305.35 88.32 296.24 92.28C287.13 96.24 281.19 101.78 260.2 100.2C262.18 104.16 270.1 105.35 270.1 105.35C270.1 105.35 263.76 117.62 249.11 119.6C266.14 123.56 276.04 117.23 276.04 117.23C276.04 117.23 280 121.98 278.81 127.52C283.96 125.54 286.34 116.44 286.34 116.44C286.34 116.44 285.15 131.49 281.58 133.47C287.13 133.07 290.69 126.34 290.69 126.34C290.69 126.34 287.92 140.59 297.03 146.53C297.03 142.97 297.82 139.8 297.82 139.8C302.97 151.29 313.66 150.5 320.4 157.62C320.4 157.62 320.4 157.62 320.4 157.62C320.4 157.62 320.4 157.62 320.4 157.62C327.13 150.1 337.82 151.29 342.97 139.8C342.97 139.8 343.76 142.97 343.76 146.53C352.87 140.59 350.1 126.34 350.1 126.34C350.1 126.34 353.66 133.07 359.21 133.47C355.64 131.49 354.46 116.44 354.46 116.44C354.46 116.44 356.83 125.54 361.98 127.52C360.79 122.38 364.75 117.23 364.75 117.23C364.75 117.23 374.65 123.17 391.68 119.6C377.43 117.23 371.09 105.35 371.09 105.35C373.07 104.32 379.01 104.16 380.99 100.2Z" id="a5WyAALeF"></path><path d="M420.59 251.49C424.95 241.58 417.03 232.48 417.03 232.48C417.03 232.48 419.01 229.31 426.14 228.12C426.14 226.14 417.03 223.37 406.73 232.08C396.83 240.4 394.85 259.01 394.85 259.01C400 257.5 415.05 263.37 420.59 251.49Z" id="aaqT8cp3V3"></path><path d="M413.47 237.23C411.93 237.23 410.69 238.47 410.69 240C410.69 241.53 411.93 242.77 413.47 242.77C415 242.77 416.24 241.53 416.24 240C416.24 238.47 415 237.23 413.47 237.23Z" id="b38q7zGHv4"></path><path d="M406.73 254.65C410.69 254.26 418.22 253.86 419.8 244.75C421.78 253.07 411.88 257.03 406.73 254.65Z" id="askXmKJUW"></path><path d="M220.99 251.49C216.63 241.58 224.55 232.48 224.55 232.48C224.55 232.48 222.57 229.31 215.45 228.12C215.45 226.14 224.55 223.37 234.85 232.08C244.75 240.4 246.73 259.01 246.73 259.01C241.58 257.5 226.53 263.37 220.99 251.49Z" id="aVFwc4Rec"></path><path d="M228.12 237.23C226.59 237.23 225.35 238.47 225.35 240C225.35 241.53 226.59 242.77 228.12 242.77C229.65 242.77 230.89 241.53 230.89 240C230.89 238.47 229.65 237.23 228.12 237.23Z" id="aa22JyQYL"></path><path d="M234.85 254.65C230.89 254.26 223.37 253.86 221.78 244.75C219.8 253.07 229.7 257.03 234.85 254.65Z" id="ajo17APMI"></path></defs><g><g><path></path><g><use xlink:href="#aEF0dIHTA" opacity="1" fill="#0a1a01" fill-opacity="1"></use><g><use xlink:href="#aEF0dIHTA" opacity="1" fill-opacity="0" stroke="#000000" stroke-width="1" stroke-opacity="0"></use></g></g><g><use xlink:href="#a5SQnzEZf" opacity="1" fill="#0a1a01" fill-opacity="1"></use><g><use xlink:href="#a5SQnzEZf" opacity="1" fill-opacity="0" stroke="#000000" stroke-width="1" stroke-opacity="0"></use></g></g><g><use xlink:href="#aBnfRmoHW" opacity="1" fill="#0a1a01" fill-opacity="1"></use><g><use xlink:href="#aBnfRmoHW" opacity="1" fill-opacity="0" stroke="#000000" stroke-width="1" stroke-opacity="0"></use></g></g><g><use xlink:href="#aXTXEvkSq" opacity="1" fill="#0a1a01" fill-opacity="1"></use><g><use xlink:href="#aXTXEvkSq" opacity="1" fill-opacity="0" stroke="#000000" stroke-width="1" stroke-opacity="0"></use></g></g><g><use xlink:href="#a1iljt5qfp" opacity="1" fill="#0a1a01" fill-opacity="1"></use><g><use xlink:href="#a1iljt5qfp" opacity="1" fill-opacity="0" stroke="#000000" stroke-width="1" stroke-opacity="0"></use></g></g><g><use xlink:href="#e3p97CdzvF" opacity="1" fill="#0a1a01" fill-opacity="1"></use><g><use xlink:href="#e3p97CdzvF" opacity="1" fill-opacity="0" stroke="#000000" stroke-width="1" stroke-opacity="0"></use></g></g><g><use xlink:href="#cEQPJ5oIg" opacity="1" fill="#0a1a01" fill-opacity="1"></use><g><use xlink:href="#cEQPJ5oIg" opacity="1" fill-opacity="0" stroke="#000000" stroke-width="1" stroke-opacity="0"></use></g></g><g><use xlink:href="#a5WyAALeF" opacity="1" fill="#0a1a01" fill-opacity="1"></use><g><use xlink:href="#a5WyAALeF" opacity="1" fill-opacity="0" stroke="#000000" stroke-width="1" stroke-opacity="0"></use></g></g><g><use xlink:href="#aaqT8cp3V3" opacity="1" fill="#0a1a01" fill-opacity="1"></use><g><use xlink:href="#aaqT8cp3V3" opacity="1" fill-opacity="0" stroke="#000000" stroke-width="1" stroke-opacity="0"></use></g></g><g><use xlink:href="#b38q7zGHv4" opacity="1" fill="#0a1a01" fill-opacity="1"></use><g><use xlink:href="#b38q7zGHv4" opacity="1" fill-opacity="0" stroke="#000000" stroke-width="1" stroke-opacity="0"></use></g></g><g><use xlink:href="#askXmKJUW" opacity="1" fill="#0a1a01" fill-opacity="1"></use><g><use xlink:href="#askXmKJUW" opacity="1" fill-opacity="0" stroke="#000000" stroke-width="1" stroke-opacity="0"></use></g></g><g><use xlink:href="#aVFwc4Rec" opacity="1" fill="#0a1a01" fill-opacity="1"></use><g><use xlink:href="#aVFwc4Rec" opacity="1" fill-opacity="0" stroke="#000000" stroke-width="1" stroke-opacity="0"></use></g></g><g><use xlink:href="#aa22JyQYL" opacity="1" fill="#0a1a01" fill-opacity="1"></use><g><use xlink:href="#aa22JyQYL" opacity="1" fill-opacity="0" stroke="#000000" stroke-width="1" stroke-opacity="0"></use></g></g><g><use xlink:href="#ajo17APMI" opacity="1" fill="#0a1a01" fill-opacity="1"></use><g><use xlink:href="#ajo17APMI" opacity="1" fill-opacity="0" stroke="#000000" stroke-width="1" stroke-opacity="0"></use></g></g></g></g></svg>