<?xml version="1.0" encoding="utf-8"?>
<!-- Svg Vector Icons : http://www.onlinewebfonts.com/icon -->
<!DOCTYPE svg PUBLIC "-//W3C//DTD SVG 1.1//EN" "http://www.w3.org/Graphics/SVG/1.1/DTD/svg11.dtd">
<svg version="1.1" xmlns="http://www.w3.org/2000/svg" xmlns:xlink="http://www.w3.org/1999/xlink" x="0px" y="0px" viewBox="0 0 1000 1000" enable-background="new 0 0 1000 1000" xml:space="preserve">
<metadata> Svg Vector Icons : http://www.onlinewebfonts.com/icon </metadata>
<g><g transform="translate(0.000000,512.000000) scale(0.100000,-0.100000)"><path d="M3738.2,5011c-793.3-151.7-1425.2-701.1-1673-1455.9c-30.7-92.2-53.8-130.6-74.9-130.6c-82.6,0-904.7-99.9-1117.9-136.4c-132.5-21.1-320.8-65.3-418.7-98c-146-46.1-195.9-71-267-140.2c-84.5-82.6-88.3-88.3-76.8-176.7c15.4-142.1,109.5-215.1,372.6-290c324.6-94.1,816.3-172.9,1269.6-207.4c153.7-11.5,176.7-17.3,176.7-48c0-23.1-13.4-36.5-36.5-36.5c-67.2,0-305.4-134.5-376.5-213.2c-40.3-44.2-98-136.4-132.5-207.4c-53.8-113.3-59.5-146-59.5-299.7c0-147.9,7.7-190.1,53.8-288.1c92.2-197.8,268.9-347.7,486-413l78.7-23.1l11.5-147.9c23.1-288.1,149.8-681.9,305.4-937.4c99.9-165.2,288.1-391.8,411-491.7c63.4-49.9,126.8-101.8,142.1-115.2c25-19.2,26.9-80.7,23.1-378.4l-5.8-355.3l-184.4-63.4C1343-2088.2,388.4-3106.2,144.4-4308.6c-23.1-105.6-42.3-234.3-44.2-286.2c-1.9-78.8,5.8-99.9,49.9-138.3l51.9-44.2H4082h3879.9l50,49.9c46.1,46.1,48,57.6,36.5,176.7c-59.5,583.9-343.8,1221.6-768.3,1726.8c-443.7,530.1-1117.9,975.7-1811.3,1198.6l-140.2,44.2v364.9v366.9l67.2,46.1c113.3,76.8,384.2,374.5,478.3,526.3c174.8,278.5,299.7,645.4,332.3,968.1l15.4,144.1l101.8,34.6c505.2,178.6,662.7,802.9,299.6,1190.9c-86.4,94.1-286.2,211.3-357.3,211.3c-23.1,0-34.6,13.5-34.6,44.2c0,42.3,7.7,44.2,270.8,69.2c399.5,34.6,762.5,90.3,1035.3,157.5c272.8,67.2,382.2,113.3,462.9,194c46.1,48,55.7,73,55.7,149.8c0,78.8-9.6,101.8-57.6,151.7c-172.9,172.9-607,267-1732.5,376.5l-128.7,11.5L6095,3555c-232.4,706.9-814.4,1246.6-1536.6,1427.1C4349,5034,3936,5047.5,3738.2,5011z M4452.7,4680.6c532.1-101.8,1004.6-461,1254.3-958.5c78.8-153.7,124.9-278.5,105.6-278.5c-7.7,0-182.5,9.6-388,19.2c-484,26.9-2187.8,26.9-2669.9,0c-205.5-9.6-380.3-19.2-388-19.2c-21.1,0,34.6,140.2,119.1,303.5c163.3,315,457.1,608.9,768.3,770.2C3626.8,4711.3,4012.9,4763.2,4452.7,4680.6z M5722.3,3159.3l172.9-13.4l17.3-128.7c7.7-73,9.6-186.3,3.9-253.5l-13.5-122.9l-128.7-11.5c-370.7-32.7-1369.5-53.8-2087.9-42.3c-764.5,11.5-1386.8,38.4-1409.8,61.5c-19.2,17.3-9.6,468.7,9.6,487.9c38.4,36.5,822.1,53.8,2014.9,46.1C4988.6,3176.6,5628.2,3167,5722.3,3159.3z M1951.9,2892.4c-3.8-124.8-11.5-228.6-13.4-232.4c-7.7-9.6-695.3,71.1-883.5,103.7c-255.5,42.2-528.2,107.6-528.2,124.8c0,51.8,975.7,217,1327.3,226.7l105.6,1.9L1951.9,2892.4z M6690.4,3078.7c451.4-53.8,943.1-151.7,943.1-190.1c0-9.6-23-21.1-51.9-26.9c-411-88.3-541.7-113.3-812.5-146c-174.8-21.1-370.7-42.3-436-50l-121-11.5v232.4v230.5h69.1C6319.7,3117.1,6504.1,3099.8,6690.4,3078.7z M5924,1538.2c0-891.2-25-1089.1-184.4-1448.2c-119.1-270.8-413-618.5-605-716.4c-46.1-23-111.4-61.5-146-86.4c-74.9-53.8-374.5-155.6-543.6-182.5c-161.3-26.9-568.5-26.9-729.9,0c-664.6,107.6-1179.3,558.9-1381,1217.8c-82.6,265.1-98,453.3-98,1215.8v714.5h1843.9H5924V1538.2z M1901.9,1221.3c-17.3-17.3-122.9,53.8-190.2,126.8c-151.7,167.1-105.6,411,99.9,543.6l88.4,55.7l5.8-359.2C1907.7,1390.3,1907.7,1225.1,1901.9,1221.3z M6402.3,1822.5c61.4-53.8,117.1-178.6,117.1-261.2c0-126.8-78.7-247.8-215.1-336.1l-53.8-32.7v368.8v368.8l53.8-32.7C6333.1,1878.2,6377.3,1845.5,6402.3,1822.5z M3546.1-1172c140.2-36.5,203.6-42.3,543.6-40.3c413,1.9,524.4,19.2,799,130.6l115.2,46.1l-5.8-484l-5.8-486l-80.7-161.3c-121-243.9-309.2-420.7-537.8-501.3c-480.2-169-1012.2,92.2-1175.5,576.2c-36.5,105.6-40.3,163.3-40.3,587.8v468.7l115.2-46.1C3334.8-1108.6,3459.7-1148.9,3546.1-1172z M2868.1-2019c119.1-681.9,824-1142.9,1488.6-971.9c355.3,90.3,647.3,328.4,806.7,655c48,99.9,98,238.2,111.4,311.1c13.4,71.1,28.8,128.7,34.6,126.8c5.8,0,74.9-25,153.7-53.8l144.1-51.9l5.8-772.1l3.8-772.1H4080.1H2543.5v774.1v774.1l140.2,51.8c74.9,26.9,144.1,50,149.8,50C2841.2-1896.1,2856.6-1951.8,2868.1-2019z M1923.1-4047.4l-313.1-413l-580.1-5.8c-318.9-1.9-580.1,1.9-580.1,9.6c0,9.6,13.5,71.1,28.8,140.2c197.8,845.1,741.4,1569.3,1544.3,2051.4l203.6,121l5.8-743.3l3.8-745.3L1923.1-4047.4z M6152.6-2284.1c747.2-451.4,1288.8-1154.4,1492.4-1934.2c73-282.3,138.3-251.6-535.9-251.6h-580.1l-303.5,407.2L5924-3653.6v743.3c0,411,5.8,745.2,13.4,745.2S6041.2-2218.8,6152.6-2284.1z M5937.5-4166.5l236.3-303.5H4068.6c-1676.8,0-2101.3,5.8-2089.8,25c7.7,11.5,117.2,149.8,242,307.3l228.6,282.4l1625-3.8l1626.9-5.8L5937.5-4166.5z"/><path d="M7201.3,1013.8l-48-46.1V88c0-814.4,3.8-885.5,36.5-956.5c42.2-92.2,103.7-151.7,197.8-192.1c57.6-23.1,159.4-28.8,524.4-28.8h451.4v-1801.7c0-1765.2,0-1803.6,38.4-1842c19.2-23.1,55.7-46.1,76.8-53.8c57.6-19.2,144.1,23.1,171,78.7c15.4,34.6,21.1,547.4,21.1,1832.4v1786.3h466.8c505.2,0,562.8,11.5,660.7,117.2C9898.1-862.7,9900-847.4,9900,61.2c0,587.7-5.8,860.5-21.1,893.1c-26.9,55.7-113.3,98-171,78.7c-21.1-7.7-57.6-30.7-76.8-53.8c-36.5-38.4-38.4-71.1-38.4-877.8c0-626.2-5.8-843.2-23-860.5c-13.5-13.4-76.8-23.1-153.7-23.1h-130.6V84.2v866.3l-57.6,57.6c-69.1,67.2-136.4,63.4-205.5-15.4l-44.2-48V80.4v-862.4h-153.7h-153.7V80.4v864.3l-44.2,51.9c-63.4,71.1-155.6,71.1-219,0l-44.2-51.9V80.4v-862.4h-144.1h-144.1l-1.9,831.7c0,589.7-7.7,849-23,897c-40.4,115.2-174.8,144.1-257.4,53.8c-32.7-36.5-34.6-97.9-40.3-910.4l-5.8-872h-119.1c-69.2,0-130.6,9.6-144,23.1c-17.3,17.3-23.1,238.2-23.1,874v852.8l-48,46.1c-28.8,30.7-69.1,48-105.6,48S7230.1,1044.6,7201.3,1013.8z"/></g></g>
</svg>