<?xml version="1.0" encoding="utf-8"?>
<!-- Svg Vector Icons : http://www.onlinewebfonts.com/icon -->
<!DOCTYPE svg PUBLIC "-//W3C//DTD SVG 1.1//EN" "http://www.w3.org/Graphics/SVG/1.1/DTD/svg11.dtd">
<svg version="1.1" xmlns="http://www.w3.org/2000/svg" xmlns:xlink="http://www.w3.org/1999/xlink" x="0px" y="0px" viewBox="0 0 1000 1000" enable-background="new 0 0 1000 1000" xml:space="preserve">
<metadata> Svg Vector Icons : http://www.onlinewebfonts.com/icon </metadata>
<g><path d="M199.9,569.9c0,0-19.6,52.1-8.2,105.4c-21.4,13.6-49.9,32.5-50,36.8c-0.1,2.3,4.6,11.3,11,22.1L10,838.1l4.4,6.9l156.3-82.7c7.6,11.1,14.4,19.9,16.8,20.6c4,1.2,32.4-16.8,53.4-30.7c43.6,32.6,99,36.8,99,36.8L199.9,569.9z"/><path d="M850.1,155l-45.8,29.2l44.9,70.3l-69.8,44.6l-68.9-107.9L677.8,212l24,37.6L209.1,564.3L349,783.4l492.8-314.7l24,37.6l32.6-20.8l-68.9-107.9l69.8-44.6l44.9,70.3l45.8-29.2L850.1,155z M809.1,456.9L510.8,650.6l-4.6-7l-4.6-7l-4.6-7l-4.6-7l-4.6-7l-4.6-7l-4.6-7l-4.6-7l-4.6-7l-4.6-7l-4.6-7l-4.6-7l-4.6-7l-4.6-7l-4.6-7l-4.6-7l-4.6-7l-4.6-7l-4.6-7l-4.6-7l-4.6-7l-4.6-7l-4.6-7l-4.6-7l-4.6-7l46.3-30.1l60.9-39.5l61.9,95.4l17.4-11.3l-61.9-95.3l37.6-24.5l57.1,87.9l17.4-11.3l-57.1-87.9l34.7-22.6l50.2,77.3l17.4-11.3l-50.2-77.3l66.6-43.3l4.6,7l4.6,7l4.6,7l4.6,7l4.6,7l4.6,7l4.6,7l4.6,7l4.6,7l4.6,7l4.5,7l4.6,7l4.6,7l4.6,7l4.6,7l4.6,7l4.6,7.1l4.6,7l4.6,7l4.6,7l4.5,7l4.6,7l4.6,7l4.6,7L809.1,456.9L809.1,456.9L809.1,456.9z"/></g>
</svg>